#!OML:ASF I:\Actors\actors\Patient Classification 1\Patient 1\Session 1\Subject1.ASF
:FULLY-SPECIFIED
:DEGREES
405
root 0.636802 17.5197 9.28536 13.2357 -5.56889 -10.0273
lowerback 1.13009 1.44285 5.52103
upperback -7.41037 2.38215 1.95394
thorax -8.3002 0.872603 -1.2163
lowerneck -18.5315 -3.33996 -1.26193
upperneck 28.4166 -6.57139 6.55745
head 12.8599 -2.17336 1.65327
rclavicle 9.14409e-015 -1.94809e-014
rhumerus 4.52645 58.6872 -70.9093
rradius 70.2697
rwrist 3.85956
rhand 8.10335 -56.3714
rfingers 7.12502
rthumb 33.3253 -83.3025
lclavicle 9.14409e-015 -1.94809e-014
lhumerus 12.3031 -56.0558 56.5058
lradius 65.7863
lwrist 16.912
lhand -12.0723 9.44082
lfingers 7.12502
lthumb 13.9873 38.9503
rfemur -9.01373 26.358 24.1619
rtibia 1.81242
rfoot -9.4036 -22.007
rtoes 0.19276
lfemur 3.87005 -50.5282 -10.5744
ltibia -4.54415
lfoot -36.9968 59.1819
ltoes 20.6745
406
root 0.643528 17.5182 9.29105 13.7939 -5.82528 -10.0422
lowerback 0.751391 1.58098 5.57212
upperback -7.71138 2.55214 1.89687
thorax -8.39404 0.943961 -1.30847
lowerneck -18.4377 -3.37223 -1.20447
upperneck 28.6471 -6.57041 6.29078
head 12.9196 -2.19887 1.54473
rclavicle 1.56791e-014 1.23246e-014
rhumerus 3.26519 58.5544 -72.1109
rradius 71.1618
rwrist 1.34157
rhand 7.24106 -56.7819
rfingers 7.12502
rthumb 32.5051 -83.8853
lclavicle 1.56791e-014 1.23246e-014
lhumerus 11.2834 -58.0237 56.9872
lradius 66.2739
lwrist 15.4305
lhand -23.0558 11.0662
lfingers 7.12502
lthumb 3.38924 41.019
rfemur -9.82411 26.1288 23.8098
rtibia 1.98548
rfoot -9.30437 -21.5241
rtoes -0.227314
lfemur 3.17394 -51.0238 -10.1169
ltibia -4.43987
lfoot -38.7645 59.5047
ltoes 21.7468
407
root 0.648212 17.5204 9.29974 14.047 -5.92032 -10.0564
lowerback 0.474906 1.64127 5.61578
upperback -7.90778 2.62078 1.85906
thorax -8.44039 0.969237 -1.37034
lowerneck -18.4337 -3.34199 -0.946798
upperneck 29.1766 -6.51531 5.85585
head 13.1053 -2.19122 1.34776
rclavicle 2.33075e-014 1.39149e-014
rhumerus 2.6891 58.3117 -72.8092
rradius 71.5595
rwrist -3.30986
rhand 4.53361 -57.6715
rfingers 7.12502
rthumb 29.925 -85.2723
lclavicle 2.33075e-014 1.39149e-014
lhumerus 10.4843 -57.6147 58.081
lradius 67.5283
lwrist 28.0927
lhand -24.8588 9.3913
lfingers 7.12502
lthumb 1.64797 39.3647
rfemur -10.1622 25.8415 23.6952
rtibia 2.06562
rfoot -9.2205 -21.1738
rtoes -0.758031
lfemur 2.79694 -50.966 -9.83131
ltibia -4.45067
lfoot -39.0228 59.5399
ltoes 21.9499
408
root 0.650052 17.5226 9.30699 13.9344 -5.86699 -10.0133
lowerback 0.442859 1.64507 5.62938
upperback -7.96508 2.62339 1.80718
thorax -8.48162 0.965479 -1.43226
lowerneck -18.3464 -3.28781 -0.823574
upperneck 29.5906 -6.44464 5.65627
head 13.2428 -2.16468 1.26674
rclavicle -5.7896e-015 -3.97569e-015
rhumerus 2.63312 58.0165 -72.9904
rradius 71.3618
rwrist -3.84881
rhand 3.30754 -57.7969
rfingers 7.12502
rthumb 28.7544 -85.6027
lclavicle -5.7896e-015 -3.97569e-015
lhumerus 10.2529 -56.6427 58.7641
lradius 67.57
lwrist 31.881
lhand -24.7067 8.74772
lfingers 7.12502
lthumb 1.79488 38.7199
rfemur -9.99061 25.623 23.7495
rtibia 2.05562
rfoot -9.15309 -21.0787
rtoes -1.21143
lfemur 2.83998 -50.4158 -9.87586
ltibia -4.54598
lfoot -37.7158 59.2978
ltoes 21.298
409
root 0.652827 17.5174 9.30748 13.8119 -5.78191 -10.0252
lowerback 0.424059 1.65362 5.74082
upperback -7.93822 2.63475 1.76513
thorax -8.43483 0.963195 -1.5383
lowerneck -18.293 -3.24326 -0.83729
upperneck 29.6885 -6.35795 5.58787
head 13.2656 -2.13605 1.25897
rclavicle -9.44227e-016 -7.95139e-015
rhumerus 3.17811 57.5296 -72.5872
rradius 71.3588
rwrist -2.29703
rhand 3.99034 -57.3747
rfingers 7.12502
rthumb 29.4065 -85.0678
lclavicle -9.44227e-016 -7.95139e-015
lhumerus 10.7844 -56.6239 58.4867
lradius 66.8083
lwrist 26.5269
lhand -27.4999 7.96823
lfingers 7.12502
lthumb -0.902904 37.9461
rfemur -9.86459 25.3182 23.8688
rtibia 2.10552
rfoot -9.0744 -20.9343
rtoes -1.70277
lfemur 2.8467 -49.9254 -9.84843
ltibia -4.56895
lfoot -36.5983 58.9983
ltoes 20.908
410
root 0.655035 17.5061 9.30219 13.7971 -5.70699 -10.1198
lowerback 0.379432 1.67097 5.89552
upperback -7.883 2.65953 1.76762
thorax -8.34166 0.968235 -1.62104
lowerneck -18.1712 -3.12342 -0.562035
upperneck 29.3159 -6.12285 5.23736
head 13.0485 -2.0612 1.11307
rclavicle -2.03754e-015 1.03368e-014
rhumerus 3.95067 57.1503 -71.8934
rradius 71.6517
rwrist -0.929451
rhand 3.75907 -56.5473
rfingers 7.12502
rthumb 29.1857 -84.279
lclavicle -2.03754e-015 1.03368e-014
lhumerus 11.4411 -56.6159 57.9781
lradius 66.3486
lwrist 21.5761
lhand -30.9553 7.06859
lfingers 7.12502
lthumb -4.23993 37.0061
rfemur -9.93322 24.9801 24.0124
rtibia 2.22775
rfoot -9.03282 -20.7311
rtoes -2.05499
lfemur 2.6607 -49.512 -9.59694
ltibia -4.52856
lfoot -35.8544 58.6938
ltoes 20.6548
411
root 0.652649 17.4993 9.296 13.7103 -5.55558 -10.1794
lowerback 0.508268 1.64908 5.92993
upperback -7.84505 2.64341 1.80415
thorax -8.37769 0.958949 -1.60438
lowerneck -18.1734 -3.03448 -0.474272
upperneck 29.0286 -5.92958 5.03159
head 12.9103 -2.00095 1.04832
rclavicle 2.38542e-015 2.94201e-014
rhumerus 4.39547 56.743 -71.3812
rradius 72.3332
rwrist -0.137244
rhand 3.0385 -55.4889
rfingers 7.12502
rthumb 28.4973 -83.338
lclavicle 2.38542e-015 2.94201e-014
lhumerus 11.5037 -55.8171 58.1098
lradius 66.6946
lwrist 21.3628
lhand -30.7321 5.89414
lfingers 7.12502
lthumb -4.02442 35.8359
rfemur -9.89665 24.8042 24.1526
rtibia 2.33236
rfoot -9.08904 -20.74
rtoes -2.11598
lfemur 2.55258 -49.1162 -9.42005
ltibia -4.49592
lfoot -35.0221 58.3275
ltoes 20.2055
